<svg xmlns="http://www.w3.org/2000/svg" xmlns:xlink="http://www.w3.org/1999/xlink" width="12" height="19" viewBox="0 0 12 19"><defs><path id="tcmza" d="M1482.188 14.375a4.563 4.563 0 1 1 0 9.125 4.563 4.563 0 0 1 0-9.125zm-1.876 4.578a1.89 1.89 0 1 0 3.782 0 1.89 1.89 0 0 0-3.782 0zm5.003 5.188s1.41-1.021 2.338.386c0 0 .998 2.285-2.728 2.7 0 0-.55.057-.39.387.161.33 2.576 2.467 2.729 3.087.152.62.406.788-.39 1.543-.796.756-1.423.578-2.728-.772-1.306-1.349-1.949-1.929-1.949-1.929s-.643.58-1.948 1.93c-1.306 1.349-1.932 1.527-2.728.771-.796-.755-.543-.924-.39-1.543.153-.62 2.567-2.758 2.728-3.087.161-.33-.39-.386-.39-.386-3.725-.416-2.728-2.701-2.728-2.701.929-1.407 2.339-.386 2.339-.386 1.497 1.028 3.117.772 3.117.772s1.621.256 3.118-.772z"/></defs><g><g transform="translate(-1476 -14)"><use fill="#95d6d3" xlink:href="#tcmza"/><use fill="#fff" xlink:href="#tcmza"/></g></g></svg>