<svg xmlns="http://www.w3.org/2000/svg" xmlns:xlink="http://www.w3.org/1999/xlink" width="18" height="17" viewBox="0 0 18 17"><defs><path id="v0cma" d="M1541.154 31.86h-14.03a1.337 1.337 0 0 1-1.337-1.338V16.477c0-.739.599-1.337 1.337-1.337h14.03c.738 0 1.336.598 1.336 1.337v14.045c0 .739-.598 1.338-1.336 1.338zm-7.015-11.37a3.008 3.008 0 0 0-3.007 3.01 3.008 3.008 0 0 0 3.007 3.01 3.008 3.008 0 0 0 3.006-3.01 3.008 3.008 0 0 0-3.006-3.01zm6.454-2.436c0-.56-.454-1.015-1.015-1.015h-1.014c-.56 0-1.014.455-1.014 1.015v1.015c0 .56.454 1.015 1.014 1.015h1.014c.56 0 1.015-.454 1.015-1.015zm0 3.926h-1.14c.11.428.03 1.057.03 1.52a5.348 5.348 0 0 1-5.344 5.35 5.348 5.348 0 0 1-5.345-5.35c0-.463-.08-1.092.03-1.52h-1.139v7.22c0 .369.39.76.76.76h11.388c.369 0 .76-.391.76-.76z"/></defs><g><g transform="translate(-1525 -15)"><use fill="#95d6d3" xlink:href="#v0cma"/><use fill="#fff" xlink:href="#v0cma"/></g></g></svg>