<svg xmlns="http://www.w3.org/2000/svg" xmlns:xlink="http://www.w3.org/1999/xlink" width="20" height="13" viewBox="0 0 20 13"><defs><path id="f7kga" d="M1376.665 29.185h1.18s.356-.04.538-.239c.167-.183.162-.525.162-.525s-.023-1.623.711-1.86c.725-.232 1.655 1.552 2.64 2.238.746.519 1.313.385 1.313.385l2.636.003s1.378-.107.725-1.206c-.054-.09-.381-.813-1.96-2.299-1.653-1.555-1.432-1.303.56-3.993 1.212-1.639 1.696-2.64 1.545-3.068-.144-.407-1.03-.337-1.03-.337l-2.974-.002s-.22-.021-.383.078c-.16.097-.262.348-.262.348s-.47 1.291-1.097 2.37c-1.321 2.274-1.85 2.395-2.066 2.253-.502-.329-.377-1.322-.377-2.028 0-2.205.33-3.124-.642-3.362-.323-.08-.56-.131-1.385-.14-1.06-.011-1.956.003-2.463.256-.338.167-.598.54-.44.562.197.027.64.122.876.447.305.419.294 1.361.294 1.361s.175 2.596-.408 2.918c-.4.221-.949-.23-2.127-2.295-.604-1.057-1.06-2.247-1.06-2.247s-.088-.22-.244-.336c-.19-.142-.456-.186-.456-.186h-2.82s-.424.013-.58.2c-.138.166-.01.509-.01.509s2.207 5.276 4.708 7.916c2.292 2.42 4.895 2.279 4.895 2.279z"/></defs><g><g transform="translate(-1367 -17)"><use fill="#95d6d3" xlink:href="#f7kga"/><use fill="#fff" xlink:href="#f7kga"/></g></g></svg>